<?xml version="1.0" encoding="UTF-8"?>
<svg id="Layer_2" data-name="Layer 2" xmlns="http://www.w3.org/2000/svg" viewBox="0 0 293.77 386.07">
  <defs>
    <style>
      .cls-1 {
        fill: #e7b197;
      }

      .cls-2 {
        fill: #d5feb4;
      }

      .cls-3 {
        fill: #cc8be1;
      }

      .cls-4 {
        fill: none;
        stroke: #462c2d;
        stroke-linecap: round;
        stroke-miterlimit: 10;
        stroke-width: 3.32px;
      }

      .cls-5 {
        fill: #ffd156;
      }
    </style>
  </defs>
  <g id="Layer_1-2" data-name="Layer 1">
    <g id="down_right" data-name="down right">
      <path class="cls-5" d="M92.02,162.75c-5.72-6.17-12.5-12.63-15.44-15.27-24.46-21.98-41.54-37.79-54.9-46.61-1.5-.99-3.98-1-8.46-1.97,0,0-2.35-.18-5.08.16-5.65.7-8.01,29.55-5.47,77.79l.29,5.97.47,4.48c.27,3.12,1.94,8.94,3.56,13.38,2.39,6.54,7.19,14.88,8.98,16.67,34.08,34.02,56.32,53.94,56.32,53.94,52.34,40.95,87.93,68.53,104.39,78.1,45.65,26.55,66.23,33.3,80.15,34.71,12.03,1.22,19.51-1.17,27.14-7.35.73-.59,1.95-2.2,2.39-3.16,4.68-10.06,6.43-19.71,5.49-35.57-1.08-18.35-4.32-44.7-23.61-108.85-6.78-22.54-19.11-61.38-45.85-129.53,0,0-10.65-29.05-31.37-75.86-1.17-2.64-5.79-11.98-10.75-15.13-3.37-2.13-17.57-4.33-19.94-4.68l-3.4-.62-4.53-.38c-36.58-3.3-58.45-.17-58.98,7.28-.26,3.6.41,9.37.41,9.37.74,5.9,3.44,14.85,4.28,16.72,6.7,14.99,15.88,40.45,27.78,70.25,1.71,4.27,7.2,15.55,10.63,24.68,2.19,5.83,7.38,17.29,9.65,23.1,7.1,18.18,20.94,45.09,26.88,57.89,3.48,7.5,10.49,21.6,6.98,26.1-4.14,5.33-18.95-7.67-24.98-12.07-10.57-7.71-26.61-24.32-39.72-38.11-2.17-2.28-18.27-19.98-23.32-25.43Z"/>
      <path class="cls-4" d="M97.65,169.71c-5.59-6.29-14.83-16.02-23.98-25.16-19.45-19.45-32.73-30.15-44.1-38.97-1.42-1.1-8.36-5.61-12.83-6.58,0,0-5.86-.28-8.59.06-5.65.7-8.01,29.55-5.47,77.79l.29,5.97.47,4.48c.27,3.12,1.94,8.94,3.56,13.38,2.39,6.54,7.25,14.83,8.98,16.67,29.77,31.78,56.32,53.94,56.32,53.94,10.08,8.68,77.35,61,98.6,74.49,42.19,26.77,72.02,36.92,85.94,38.33,12.03,1.22,19.51-1.17,27.14-7.35.73-.59,1.95-2.2,2.39-3.16,4.68-10.06,6.43-19.71,5.49-35.57-1.08-18.35-4.32-44.7-23.61-108.85-6.78-22.54-19.11-61.38-45.85-129.53,0,0-10.65-29.05-31.37-75.86-1.17-2.64-5.79-11.98-10.75-15.13-3.37-2.13-17.57-4.33-19.94-4.68l-3.4-.62-4.53-.38c-36.58-3.3-58.45-.17-58.98,7.28-.26,3.6.41,9.37.41,9.37.74,5.9,4.25,17.04,5.08,18.91,6.7,14.99,15.08,38.25,26.97,68.05,1.71,4.27,7.2,15.55,10.63,24.68,2.19,5.83,7.38,17.29,9.65,23.1,7.1,18.18,20.78,43.75,26.88,57.89,3.27,7.59,10.49,21.6,6.98,26.1-4.14,5.33-18.84-7.82-24.98-12.07-9.94-6.88-19.98-18.35-33.46-31.84-2.22-2.22-16.77-16.65-23.95-24.73Z"/>
      <path class="cls-1" d="M281.58,331.97c4.17,19.28-.13,38.74-10.42,42.89-1.45.59-18.53,1.9-23.45.14-5.81-2.09-40.27-17.98-41.69-19.03-16.63-12.15-56.49-33.22-55.24-35.73,1.34-2.7,72.79,33.4,96.97,33.4,16.13,0,32.51-27.8,33.84-21.67Z"/>
      <path class="cls-3" d="M271.15,374.86c4.26-4.26,5.83-9.57,1.72-8.53s-15.07,1.35-24.91.06c-7.03-.93-12.69-2.63-16.91-3.9-9.1-2.74-24.8-6.96-25.05-6.52-.23.4,8.55,4.41,16.88,9.06,9.49,5.3,14.7,6.21,20.31,8.75,4.64,2.1,24.27,4.75,27.95,1.07Z"/>
      <path class="cls-2" d="M209.87,89.31c3.06-2.69,5.69,7.04,6.27,10.08.16.86.42,2.54-1.49,5.83-1.45,2.49-4.45,6.44-6.37,7.57-2.71,1.6-2.24-3-1.48-9.78.91-8.12,1.37-12.22,3.07-13.71Z"/>
      <path class="cls-2" d="M204.31,71.95c-2.34-10.06-7.57-22.84-14.53-39.69-3.22-7.81-7.28-14.64-11.33-18.05-5.16-4.33-13.97-4.95-17.77-5.19-7.07-.44-20.17-1.3-21.93-1.34-23.99-.63-8.8,12.51-2.22,16.87,3.3,2.18,14.06,8.95,29.77,16.45,17.29,8.25,29.24,43.2,30,45.08,6.12,15.15,7.66,13.61,8.38,10.05,3.39-16.76,2.54-11.65-.37-24.18Z"/>
      <path class="cls-2" d="M261.94,244.28c-1.93,1.65-8.08-7.98-14.24-19.67-3.42-6.49-8.3-19.93-9.62-24.09-3.11-9.79-2.68-9.09-10.87-38.72-6.94-25.11-6.34-25.94-5.43-26.57,2.02-1.39,2.84,1.26,10.28,20.94,5.37,14.21,8.88,20.59,20.38,53.65,9.55,27.46,10.9,33.27,9.5,34.47Z"/>
      <path class="cls-1" d="M30.91,124.88c-18.48-8.89-20.37,1.48-20.37,10.98,0,15.28,1.79,38.41.79,41.06-3.61,9.54,28.02,47.8,47.75,69.35,7.47,8.16,14.72,14.97,17.72,17.74,2.44,2.26,6.8,6.21,16.26,14.04,7.09,5.87,16.81,13.71,28.8,22.83,18.92,8.9-13.04-25.27-20.04-36.44-5.02-8-10.62-20.62-12.73-26.71s-6.26-14.53-8.37-22.06c-.8-2.85-10-24.36-12.01-29.35-1.34-3.33-34.33-59.76-37.8-61.44Z"/>
      <path class="cls-3" d="M32.37,154.29c-12.05-19.85-17.17-7.94-20.6,3.25-2.79,9.1-.2,32.48,1.57,37.97.94,2.9,2.77,10.18,16.93,26.38,17.74,20.28,32.59,31.52,40.44,38.58,19.69,17.69,13.71,7.76,13.48,7.38-5.96-10.04-26.43-28.99-30.74-54.68-2.24-13.31-18.17-54.08-21.09-58.88Z"/>
      <path class="cls-2" d="M152.68,233.36c1.07-.92,5.45,3.37,18.11,9.81,4.11,2.09,6.1,3.16,8.94,1.43,1.98-1.21,1.71-2.66,2.6-1.92,3.02,2.5,2.21,6.53-2.25,9.54-6.15,4.15-15.71-2.47-17.22-3.52-7.69-5.33-11.49-14.21-10.18-15.34Z"/>
    </g>
  </g>
</svg>