<?xml version="1.0" encoding="UTF-8"?>
<svg id="Layer_2" data-name="Layer 2" xmlns="http://www.w3.org/2000/svg" viewBox="0 0 293.77 386.07">
  <defs>
    <style>
      .cls-1 {
        fill: #e7b197;
      }

      .cls-2 {
        fill: #d5feb4;
      }

      .cls-3 {
        fill: #cc8be1;
      }

      .cls-4 {
        fill: none;
        stroke: #462c2d;
        stroke-linecap: round;
        stroke-miterlimit: 10;
        stroke-width: 3.32px;
      }

      .cls-5 {
        fill: #ffd156;
      }
    </style>
  </defs>
  <g id="Layer_1-2" data-name="Layer 1">
    <g id="down_left" data-name="down left">
      <path class="cls-5" d="M201.76,162.75c5.72-6.17,12.5-12.63,15.44-15.27,24.46-21.98,41.54-37.79,54.9-46.61,1.5-.99,3.98-1,8.46-1.97,0,0,2.35-.18,5.08.16,5.65.7,8.01,29.55,5.47,77.79l-.29,5.97-.47,4.48c-.27,3.12-1.94,8.94-3.56,13.38-2.39,6.54-7.19,14.88-8.98,16.67-34.08,34.02-56.32,53.94-56.32,53.94-51.17,40.06-87.93,68.53-104.39,78.1-45.65,26.55-66.23,33.3-80.15,34.71-12.03,1.22-19.51-1.17-27.14-7.35-.73-.59-1.95-2.2-2.39-3.16-4.68-10.06-6.43-19.71-5.49-35.57,1.08-18.35,4.32-44.7,23.61-108.85,6.78-22.54,19.11-61.38,45.85-129.53,0,0,10.65-29.05,31.37-75.86,1.17-2.64,5.79-11.98,10.75-15.13,3.37-2.13,17.57-4.33,19.94-4.68l3.4-.62,4.53-.38c36.58-3.3,58.45-.17,58.98,7.28.26,3.6-.41,9.37-.41,9.37-.74,5.9-3.44,14.85-4.28,16.72-6.7,14.99-15.88,40.45-27.78,70.25-1.71,4.27-7.2,15.55-10.63,24.68-2.19,5.83-7.38,17.29-9.65,23.1-7.1,18.18-20.94,45.09-26.88,57.89-3.48,7.5-10.49,21.6-6.98,26.1,4.14,5.33,18.95-7.67,24.98-12.07,10.57-7.71,26.61-24.32,39.72-38.11,2.17-2.28,18.27-19.98,23.32-25.43Z"/>
      <path class="cls-4" d="M196.13,169.71c5.59-6.29,14.83-16.02,23.98-25.16,19.45-19.45,32.73-30.15,44.1-38.97,1.42-1.1,8.36-5.61,12.83-6.58,0,0,5.86-.28,8.59.06,5.65.7,8.01,29.55,5.47,77.79l-.29,5.97-.47,4.48c-.27,3.12-1.94,8.94-3.56,13.38-2.39,6.54-7.25,14.83-8.98,16.67-29.77,31.78-56.32,53.94-56.32,53.94-10.08,8.68-77.35,61-98.6,74.49-42.19,26.77-72.02,36.92-85.94,38.33-12.03,1.22-19.51-1.17-27.14-7.35-.73-.59-1.95-2.2-2.39-3.16-4.68-10.06-6.43-19.71-5.49-35.57,1.08-18.35,4.32-44.7,23.61-108.85,6.78-22.54,19.11-61.38,45.85-129.53,0,0,10.65-29.05,31.37-75.86,1.17-2.64,5.79-11.98,10.75-15.13,3.37-2.13,17.57-4.33,19.94-4.68l3.4-.62,4.53-.38c36.58-3.3,58.45-.17,58.98,7.28.26,3.6-.41,9.37-.41,9.37-.74,5.9-4.25,17.04-5.08,18.91-6.7,14.99-15.08,38.25-26.97,68.05-1.71,4.27-7.2,15.55-10.63,24.68-2.19,5.83-7.38,17.29-9.65,23.1-7.1,18.18-20.78,43.75-26.88,57.89-3.27,7.59-10.49,21.6-6.98,26.1,4.14,5.33,18.84-7.82,24.98-12.07,9.94-6.88,19.98-18.35,33.46-31.84,2.22-2.22,16.77-16.65,23.95-24.73Z"/>
      <path class="cls-2" d="M144.3,144.15c1.8,1.39,4.81-11.8,5.42-14.15.17-.67.47-1.95-.53-4-.76-1.55-1.2-2.92-1.92-.82-.51,1.5-.43.92-1.68,5.64-1.44,5.47-2.28,12.56-1.29,13.34Z"/>
      <path class="cls-2" d="M264.67,199.41c-11.68-1.65-15.03-31.11-33.89-22.8-16.06,7.08-75.03,52.41-48.92,22.83,6.83-7.74,19.33-20.94,30.5-34.92,7.77-9.73,18.16-19.25,25.89-26.98,6.41-6.41,20.94-16.68,22.7-18.44,6.6-6.6,16.12-10.67,20.64-8.02,7.93,4.66,4.83,26.82,3.4,54.03-1.96,37.09-.51,37.09-20.32,34.29Z"/>
      <path class="cls-2" d="M192.81,13.02c-1.46-2.08-17.59-7.25-31.55-3.26-7.05,2.02,1.27,7.8,4.12,21.82,2.05,10.07-.23,33.71-9.04,63.16-7.47,24.95-6.89,25.8-5.99,26.45,1.99,1.44,2.86-1.2,10.72-20.72,5.67-14.09,9.32-20.4,21.51-53.2,10.13-27.26,13.12-30.13,10.22-34.27Z"/>
      <path class="cls-1" d="M98.36,351.94c-12.25,5.99-65.42,31.66-74.42,25.39-10.21-7.13-13.04-18.8-13.04-25.34,0-13.07,9.01-32.28,13.73-65.93,1.79-12.74,3.95-23.64,4.86-28.09.74-3.62,2.09-9.99,5.31-22.82,2.41-9.62,5.79-22.54,10.18-37.74,9.01-16.76-2.65,44.75-2.98,61.33-.24,11.88,6.74,43.88,8.98,50.08,7.65,21.16,26.11,22.29,36.67,20.42,19.81-3.51,56.11-26,43.61-2.52-2.24,4.2-25.75,21.74-32.9,25.23Z"/>
      <path class="cls-3" d="M57.48,349.47c7.7,2.36,39.73,11.44-23.41,27.75-13.13,3.39-19.77-5.12-21.57-11.08-1.06-3.5-3.48-11.01-.37-36.12,3.9-31.45,12.27-54.39,14.72-65.78,6.16-28.55,6.81-15.18,4.86.64-1.84,14.9-8.41,34.64,5.64,65.92,6.9,15.36,13.09,16.52,20.13,18.67Z"/>
    </g>
  </g>
</svg>