<?xml version="1.0" encoding="UTF-8"?>
<svg id="Layer_2" data-name="Layer 2" xmlns="http://www.w3.org/2000/svg" viewBox="0 0 293.86 386.15">
  <defs>
    <style>
      .cls-1 {
        fill: #e7b197;
      }

      .cls-2, .cls-3 {
        fill: #d5feb4;
      }

      .cls-4 {
        fill: #cc8be1;
      }

      .cls-5 {
        fill: none;
        stroke: #462c2d;
        stroke-linecap: round;
        stroke-miterlimit: 10;
        stroke-width: 3.4px;
      }

      .cls-6 {
        fill: #ffd156;
      }

      .cls-3 {
        opacity: .5;
      }
    </style>
  </defs>
  <g id="Layer_1-2" data-name="Layer 1">
    <g id="down">
      <path class="cls-6" d="M105.59,113.55c-2.66-8.79-4.7-19.24-5.98-23.36-8.92-28.71-17.82-60.37-21.71-75.41-.49-1.88-2.69-3.95-5.79-8.29,0,0-1.85-2.07-4.33-4.13-5.14-4.26-25.32,11.98-53.68,44.53l-3.53,4.01-2.44,3.22c-1.74,2.19-4.03,7.26-5.49,11.41-2.14,6.12-.09,15.86.6,18.5,12.32,46.8,21.81,74,21.81,74,20.78,65.27,34.7,100.39,43.65,119.92,23.47,51.23,38.41,75.87,49.1,88.35,9.24,10.79,16.98,15.51,27.23,17.96.98.23,3.01.23,3.99,0,10.25-2.45,17.79-7.08,27.03-17.87,10.69-12.48,24.63-31.81,49.1-88.35,8.6-19.87,22.86-54.65,43.65-119.92,0,0,9.48-27.2,21.81-74,.7-2.64,2.75-12.38.6-18.5-1.45-4.15-3.74-9.21-5.49-11.41l-2.44-3.22-3.53-4.01C251.4,14.44,231.22-1.8,226.07,2.46c-2.48,2.06-5.57,6.25-5.57,6.25-3.11,4.34-6.51,12.23-7,14.11-3.89,15.04-12.33,38.75-21.25,67.46-1.28,4.12-3.84,15.81-6.74,24.43-1.86,5.51-4.78,17.05-6.56,22.61-5.57,17.38-13.09,39.63-19.1,51.21-3.47,6.68-8.16,21.92-13.91,21.84-6.81-.09-12.79-17.88-15.99-25.61-5.11-12.32-15.21-40.35-20.68-57.8-1.03-3.28-2.48-9.49-3.67-13.41Z"/>
      <path class="cls-5" d="M105.59,113.55c-2.66-8.79-4.7-19.24-5.98-23.36-8.92-28.71-14.23-50.83-18.12-65.87-.49-1.88-3.42-10.5-6.52-14.84,0,0-4.7-5.06-7.19-7.11-5.14-4.26-25.32,11.98-53.68,44.53l-3.53,4.01-2.44,3.22c-1.74,2.19-4.03,7.26-5.49,11.41-2.14,6.12-.09,15.86.6,18.5,12.32,46.8,21.81,74,21.81,74,20.78,65.27,34.7,100.39,43.65,119.92,23.47,51.23,38.41,75.87,49.1,88.35,9.24,10.79,16.98,15.51,27.23,17.96.98.23,3.01.23,3.99,0,10.25-2.45,17.79-7.08,27.03-17.87,10.69-12.48,24.63-31.81,49.1-88.35,8.6-19.87,22.86-54.65,43.65-119.92,0,0,9.48-27.2,21.81-74,.7-2.64,2.75-12.38.6-18.5-1.45-4.15-3.74-9.21-5.49-11.41l-2.44-3.22-3.53-4.01C251.4,14.44,231.22-1.8,226.07,2.46c-2.48,2.06-5.57,6.25-5.57,6.25-3.11,4.34-7.23,14.29-7.72,16.17-3.89,15.04-11.61,36.7-20.53,65.4-1.28,4.12-3.84,15.81-6.74,24.43-1.86,5.51-4.78,17.05-6.56,22.61-5.57,17.38-13.09,39.63-19.1,51.21-3.47,6.68-8.16,21.92-13.91,21.84-6.81-.09-12.79-17.88-15.99-25.61-5.11-12.32-15.21-40.35-20.68-57.8-1.03-3.28-2.48-9.49-3.67-13.41Z"/>
      <path class="cls-2" d="M252.49,31.71c6.54,6,8.75,7.95,23.8,24.01,2.05,2.19,5.18,5.63,6.11,11.73.86,5.64-.56,10.84-1.29,13.4-9.76,34.41-14.64,51.62-16.41,56.95-6.96,20.99-7.48,23.77-9.39,23.36-4.42-.94,3.11-39.58-9.86-78.56-4.29-12.88-7.12-15.27-11.5-28.06-2.39-6.97-7.42-19.18-5.61-24.63,1.6-4.79,8.12-6.01,8.84-6.03,5.58-.21,7.9,1.05,15.29,7.84Z"/>
      <path class="cls-2" d="M66.49,22.37c8.95,9.8,14.65,35.2,21.14,55.31,13.54,42,12.95,47.76,10.02,44.83-6-6-9.46-11.86-14.36-19.76-17.05-27.51-18.09-24.25-24.66-28.92-12.12-8.63-20.92-11.75-22.26-17.52-2.11-9.07-1.25-25.43,15.96-34.16,2.28-1.16,9.85-4.49,14.15.22Z"/>
      <path class="cls-3" d="M86.58,119.97c10.73,12.41,7.7,7.32,13.04,16.59,11.75,20.39,10.67,21.76,10.62,23.78-.07,2.85-5.84-1.58-16.86-10.68-10.82-8.94-7.83-6.09-13.06-14.55-6.47-10.47-8.54-26.76-6.63-29.14,1.03-1.28,9.04,9.55,12.89,14Z"/>
      <path class="cls-1" d="M200.8,310.14c-11.41,25.08-20.04,48.96-44.1,59.08-3.23,1.36-10.66,4.32-19.14,0-2.84-1.45-7.57-1.28-20.34-19.45-10.4-14.79-18.58-28.83-19.7-31.15-35.29-73,17.11,27.42,73.03,5.15,18.82-7.5,32.46-18.48,30.25-13.63Z"/>
      <path class="cls-4" d="M155.24,354.4c4.1,1.93,9.8,8.8,8.35,11.32-3.53,6.08-20.01,5.97-23.76,5.2-9.53-1.94-16.86-9.55-19.98-14.09-11.75-17.08-20.78-35.12-18.38-33.56,3.97,2.59,6.01,10.73,28.79,19.22,12.31,4.59,16.61,7.96,24.98,11.91Z"/>
      <path class="cls-1" d="M93.95,287.67c-6.04-4.23-9.2-11.85-17.33-27.91-8.5-16.81-20.99-43.01-18.16-47.6,2.41-3.91,17.56,7.68,24.71,20.77.97,1.78,2.16,4.44,4.53,9.74,7.56,16.95,14.44,37.41,20.2,52.44,2.93,7.66-12.92-6.72-13.95-7.43Z"/>
    </g>
  </g>
</svg>