<?xml version="1.0" encoding="UTF-8"?>
<svg id="Layer_2" data-name="Layer 2" xmlns="http://www.w3.org/2000/svg" viewBox="0 0 293.99 386.15">
  <defs>
    <style>
      .cls-1 {
        fill: #e7b197;
      }

      .cls-2, .cls-3 {
        fill: #d5feb4;
      }

      .cls-4 {
        fill: #cc8be1;
      }

      .cls-5 {
        fill: none;
        stroke: #462c2d;
        stroke-linecap: round;
        stroke-miterlimit: 10;
        stroke-width: 3.4px;
      }

      .cls-6 {
        fill: #ffd156;
      }

      .cls-3 {
        opacity: .5;
      }
    </style>
  </defs>
  <g id="Layer_1-2" data-name="Layer 1">
    <g id="left">
      <path class="cls-6" d="M191.07,139.92c6.67-3.51,14.61-6.19,17.73-7.88,21.8-11.76,59.49-25.88,70.91-31,1.43-.64,4.9-2.13,8.19-6.22,0,0,2.31-2.76,3.88-6.03,3.23-6.78-9.09-33.37-33.81-70.74l-3.05-4.65-2.44-3.21c-1.67-2.3-5.51-5.31-8.66-7.23-4.64-2.82-12.04-.12-14.05.8-35.53,16.24-56.18,28.73-56.18,28.73-49.55,27.39-76.22,45.72-91.05,57.51-38.9,30.93-57.6,50.61-67.07,64.7-8.19,12.17-11.78,22.37-13.64,35.88-.18,1.29-.18,3.96,0,5.26,1.86,13.51,5.38,23.45,13.57,35.62,9.48,14.08,24.15,32.46,67.07,64.7,15.09,11.33,41.49,30.13,91.05,57.51,0,0,20.65,12.5,56.18,28.73,2.01.92,9.4,3.62,14.05.8,3.15-1.92,7-4.93,8.66-7.23l2.44-3.21,3.05-4.65c24.71-37.36,37.04-63.96,33.81-70.74-1.56-3.27-3.87-6.03-3.88-6.03-3.3-4.09-6.77-5.58-8.19-6.22-11.42-5.12-49.11-19.25-70.91-31-3.13-1.69-12-5.05-18.55-8.89-4.18-2.45-12.95-6.3-17.17-8.65-13.2-7.34-30.09-17.24-38.88-25.17-5.07-4.57-16.64-10.75-16.58-18.34.07-8.98,13.58-16.85,19.44-21.07,9.36-6.74,30.63-20.05,43.88-27.26,2.49-1.36,7.2-3.27,10.18-4.83Z"/>
      <path class="cls-5" d="M191.07,139.92c6.67-3.51,14.61-6.19,17.73-7.88,21.8-11.76,59.49-25.88,70.91-31,1.43-.64,4.9-2.13,8.19-6.22,0,0,2.31-2.76,3.88-6.03,3.23-6.78-9.09-33.37-33.81-70.74l-3.05-4.65-2.44-3.21c-1.67-2.3-5.51-5.31-8.66-7.23-4.64-2.82-12.04-.12-14.05.8-35.53,16.24-56.18,28.73-56.18,28.73-49.55,27.39-76.22,45.72-91.05,57.51-38.9,30.93-57.6,50.61-67.07,64.7-8.19,12.17-11.78,22.37-13.64,35.88-.18,1.29-.18,3.96,0,5.26,1.86,13.51,5.38,23.45,13.57,35.62,9.48,14.08,24.15,32.46,67.07,64.7,15.09,11.33,41.49,30.13,91.05,57.51,0,0,20.65,12.5,56.18,28.73,2.01.92,9.4,3.62,14.05.8,3.15-1.92,7-4.93,8.66-7.23l2.44-3.21,3.05-4.65c24.71-37.36,37.04-63.96,33.81-70.74-1.56-3.27-3.87-6.03-3.88-6.03-3.3-4.09-6.77-5.58-8.19-6.22-11.42-5.12-49.11-19.25-70.91-31-3.13-1.69-12-5.05-18.55-8.89-4.18-2.45-12.95-6.3-17.17-8.65-13.2-7.34-30.09-17.24-38.88-25.17-5.07-4.57-16.64-10.75-16.58-18.34.07-8.98,13.58-16.85,19.44-21.07,9.36-6.74,30.63-20.05,43.88-27.26,2.49-1.36,7.2-3.27,10.18-4.83Z"/>
      <path class="cls-2" d="M267.24,50.98c-4.56-8.61-6.03-11.52-18.23-31.37-1.66-2.7-4.27-6.82-8.9-8.05-4.28-1.14-8.23.74-10.17,1.7-26.12,12.86-39.19,19.29-43.24,21.62-15.93,9.17-18.05,9.85-17.74,12.37.71,5.82,30.05-4.09,59.65,13,9.78,5.65,11.6,9.38,21.31,15.15,5.29,3.14,14.57,9.78,18.7,7.39,3.64-2.1,4.56-10.69,4.58-11.65.16-7.35-.79-10.41-5.95-20.15Z"/>
      <path class="cls-2" d="M271.05,296.09c-7.44-11.79-20.67-13.13-36.44-18.22-32.26-10.42-40.57-19.77-43.15-16.66-3.1,3.74,12.57,20.03,18.57,26.48,20.88,22.46,29.77,25.64,34.7,40.26,5.7,16.93,5.2,18.23,9.58,20,6.89,2.78,10.29-10.53,16.91-33.22.88-3,3.41-12.98-.17-18.65Z"/>
      <path class="cls-3" d="M192.67,276.08c-9.42-14.14-5.56-10.15-12.6-17.18-15.48-15.48-16.52-14.06-18.05-13.99-2.16.1,1.2,7.7,8.11,22.22,6.79,14.26,4.63,10.31,11.05,17.2,7.95,8.53,20.32,11.25,22.12,8.74.97-1.35-7.25-11.91-10.63-16.98Z"/>
      <path class="cls-1" d="M13.26,205.96c-1.03-4.25-3.28-14.04,0-25.23,1.1-3.74.97-9.97,14.77-26.81,11.23-13.7,21.89-24.48,23.65-25.96,55.42-46.5-14.44,43.94,23.96,128.11,3.97,8.7,18.52,26.79,39.75,44.46,7.85,6.54,14.51,15.51,24.16,25.16,2.29,2.29-16.47-9.59-24.97-15.51-6.41-4.47-29.77-20.91-36.83-26.25-15.44-11.67-56.81-46.29-64.5-77.99Z"/>
      <path class="cls-4" d="M25.57,184.63c-3.39-1.02-7.34,1.6-9.24,3.52-4.62,4.65-3.88,11.85-3.3,16.79,1.47,12.56,7.47,21.7,10.7,26.33,12.41,17.81,26.67,27.39,25.48,24.22-1.97-5.24-8.14-7.92-14.59-37.93-3.49-16.22-2.31-30.9-9.04-32.92Z"/>
      <path class="cls-1" d="M116.56,177.72c-2.81-2.88,11.37-28.84,30.12-44.3,12.92-10.65,32.04-21.99,35.52-18.27,2.97,3.17-5.21,17.47-15.15,26.89-1.35,1.28-3.37,2.84-7.4,5.96-12.87,9.96-14.83,10.91-26.24,18.5-5.81,3.87-16.04,12.05-16.86,11.21Z"/>
    </g>
  </g>
</svg>