<?xml version="1.0" encoding="UTF-8"?>
<svg id="Layer_2" data-name="Layer 2" xmlns="http://www.w3.org/2000/svg" viewBox="0 0 293.99 386.15">
  <defs>
    <style>
      .cls-1 {
        fill: #e7b197;
      }

      .cls-2 {
        fill: #d5feb4;
      }

      .cls-3 {
        fill: #cc8be1;
      }

      .cls-4 {
        fill: none;
        stroke: #462c2d;
        stroke-linecap: round;
        stroke-miterlimit: 10;
        stroke-width: 3.4px;
      }

      .cls-5 {
        fill: #ffd156;
      }
    </style>
  </defs>
  <g id="Layer_1-2" data-name="Layer 1">
    <g id="right">
      <path class="cls-5" d="M102.92,139.92c-6.67-3.51-14.61-6.19-17.73-7.88-21.8-11.76-59.49-25.88-70.91-31-1.43-.64-4.9-2.13-8.19-6.22,0,0-2.31-2.76-3.88-6.03-3.23-6.78,9.09-33.37,33.81-70.74l3.05-4.65,2.44-3.21c1.67-2.3,5.51-5.31,8.66-7.23,4.64-2.82,12.04-.12,14.05.8,35.53,16.24,56.18,28.73,56.18,28.73,49.55,27.39,76.22,45.72,91.05,57.51,38.9,30.93,57.6,50.61,67.07,64.7,8.19,12.17,11.78,22.37,13.64,35.88.18,1.29.18,3.96,0,5.26-1.86,13.51-5.38,23.45-13.57,35.62-9.48,14.08-24.15,32.46-67.07,64.7-15.09,11.33-41.49,30.13-91.05,57.51,0,0-20.65,12.5-56.18,28.73-2.01.92-9.4,3.62-14.05.8-3.15-1.92-7-4.93-8.66-7.23l-2.44-3.21-3.05-4.65C11.37,330.74-.95,304.15,2.28,297.37c1.56-3.27,3.87-6.03,3.88-6.03,3.3-4.09,6.77-5.58,8.19-6.22,11.42-5.12,49.11-19.25,70.91-31,3.13-1.69,12-5.05,18.55-8.89,4.18-2.45,12.95-6.3,17.17-8.65,13.2-7.34,30.09-17.24,38.88-25.17,5.07-4.57,16.64-10.75,16.58-18.34-.07-8.98-13.58-16.85-19.44-21.07-9.36-6.74-30.63-20.05-43.88-27.26-2.49-1.36-7.2-3.27-10.18-4.83Z"/>
      <path class="cls-4" d="M102.92,139.92c-6.67-3.51-14.61-6.19-17.73-7.88-21.8-11.76-59.49-25.88-70.91-31-1.43-.64-4.9-2.13-8.19-6.22,0,0-2.31-2.76-3.88-6.03-3.23-6.78,9.09-33.37,33.81-70.74l3.05-4.65,2.44-3.21c1.67-2.3,5.51-5.31,8.66-7.23,4.64-2.82,12.04-.12,14.05.8,35.53,16.24,56.18,28.73,56.18,28.73,49.55,27.39,76.22,45.72,91.05,57.51,38.9,30.93,57.6,50.61,67.07,64.7,8.19,12.17,11.78,22.37,13.64,35.88.18,1.29.18,3.96,0,5.26-1.86,13.51-5.38,23.45-13.57,35.62-9.48,14.08-24.15,32.46-67.07,64.7-15.09,11.33-41.49,30.13-91.05,57.51,0,0-20.65,12.5-56.18,28.73-2.01.92-9.4,3.62-14.05.8-3.15-1.92-7-4.93-8.66-7.23l-2.44-3.21-3.05-4.65C11.37,330.74-.95,304.15,2.28,297.37c1.56-3.27,3.87-6.03,3.88-6.03,3.3-4.09,6.77-5.58,8.19-6.22,11.42-5.12,49.11-19.25,70.91-31,3.13-1.69,12-5.05,18.55-8.89,4.18-2.45,12.95-6.3,17.17-8.65,13.2-7.34,30.09-17.24,38.88-25.17,5.07-4.57,16.64-10.75,16.58-18.34-.07-8.98-13.58-16.85-19.44-21.07-9.36-6.74-30.63-20.05-43.88-27.26-2.49-1.36-7.2-3.27-10.18-4.83Z"/>
      <path class="cls-2" d="M55.07,11.61c-11.33,7.11-18.48,17.59-19.22,24.04-.21,1.8-.56,6.03.84,8.42,2.76,4.69,7.77,6.69,17.87,12.1,12.45,6.67,39.04,11.33,88.94,33.91,0,0,35.24,21.42,61.4,24.35.95.11,4.85.56,9.13,1.04,5.21.58,7-.36,8.44-2.1,1.48-1.8-5.39-9.03-14.11-15.32-24.06-17.37-66.29-42.66-78.02-49.34C73.8,16.55,59.07,9.11,55.07,11.61Z"/>
      <path class="cls-2" d="M207.71,128c-.08-3.22,19.03-4.29,24.68-4.4,1.6-.03,4.63-.04,7.24,2.2,1.97,1.69,4.13,5.03,3.29,6.97-1.18,2.74-7.85,1.66-17.6,0-11.67-1.99-17.56-2.99-17.6-4.77Z"/>
      <path class="cls-2" d="M257.27,231.52c-.73-2.81,21.16-28.03,14.05-38.45-3.52-5.16-5.6-7.19.16-9.62,3.51-1.48,7.27-.66,10.48,0,1.01.21,1.88,1.39,2.17,6.88.36,6.78-.56,16.21-2.58,20.08-2.26,4.33-3.76,8.9-6.72,11.05-1.72,1.25-17.15,11.58-17.55,10.06Z"/>
      <path class="cls-3" d="M26.56,335.77c-12.79-23.02-19.28-31.16-15.82-38.05,1.54-3.06,9.11-7.72,14.15-9.51,13.58-4.84,22.45-9.21,35.41-14.15,34.41-13.12,55.59-27.83,56.68-26.16,1.44,2.2-57.08,44.07-64.68,75.07-3.81,15.57-3.69,33.71-8.63,34.21-3.17.32-9.11-7.03-17.11-21.42Z"/>
      <path class="cls-1" d="M19.04,63.62c-2.12,3.17-7.91,14.14-7.91,22.59,0,1.19,1.45,3.88,4.06,6.09,3.08,2.62,15.45,8.58,16.57,8.96,13.14,4.46,39.38,17.82,40.78,15.81,1.51-2.16-35.32-24.82-45.68-36.94-5.84-6.83-4.78-21.05-7.82-16.51Z"/>
      <path class="cls-1" d="M100.04,256.01c8.22-4.8,16.96-8.23,32.05-16.71,20.52-11.17,34.53-21.9,36.68-19.45,1.27,1.44-1.65,7.08-15.01,18.67-40.02,34.72-53.94,49.98-67.99,68.38-3.5,4.59-8.3,9.92-11.82,19.28-1.27,3.37-.93,17.17,5.24,23.35,2.25,2.25.45,3.53,10.24,5.01,11.46,1.73-14.42,13.65-32.27,15.32-10.68,1-20.68-17.14-21.82-27.4-3.24-29.16,15.07-47.66,24.31-56.9,17.3-17.3,18.46-16.74,40.39-29.55Z"/>
      <path class="cls-3" d="M11.13,86.22c-.19-4.53,1.1-8.6,2.06-10.62,1.49-3.15,1.07,5.1,4.73,10.62,2.62,3.94,5.39,6.65,7.46,8.67,4.46,4.35,7.86,6.44,7.62,6.81-.22.34-2.97-.64-8.19-2.9-6.64-2.88-7.36-3.72-10.71-5.99-2.77-1.88-2.92-5.34-2.97-6.59Z"/>
    </g>
  </g>
</svg>