<?xml version="1.0" encoding="UTF-8"?>
<svg id="Layer_2" data-name="Layer 2" xmlns="http://www.w3.org/2000/svg" viewBox="0 0 293.77 386.07">
  <defs>
    <style>
      .cls-1 {
        fill: #e7b197;
      }

      .cls-2 {
        fill: #d5feb4;
      }

      .cls-3 {
        fill: #cc8be1;
      }

      .cls-4 {
        fill: none;
        stroke: #462c2d;
        stroke-linecap: round;
        stroke-miterlimit: 10;
        stroke-width: 3.32px;
      }

      .cls-5 {
        fill: #ffd156;
      }
    </style>
  </defs>
  <g id="Layer_1-2" data-name="Layer 1">
    <g id="up_left" data-name="up left">
      <path class="cls-5" d="M201.76,223.32c5.72,6.17,12.5,12.63,15.44,15.27,24.46,21.98,41.54,37.79,54.9,46.61,1.5.99,3.98,1,8.46,1.97,0,0,2.35.18,5.08-.16,5.65-.7,8.01-29.55,5.47-77.79l-.29-5.97-.47-4.48c-.27-3.12-1.94-8.94-3.56-13.38-2.39-6.54-7.19-14.88-8.98-16.67-34.08-34.02-56.32-53.94-56.32-53.94-51.17-40.06-87.93-68.53-104.39-78.1C71.42,10.13,50.84,3.38,36.93,1.97c-12.03-1.22-19.51,1.17-27.14,7.35-.73.59-1.95,2.2-2.39,3.16C2.71,22.54.97,32.19,1.9,48.05c1.08,18.35,4.32,44.7,23.61,108.85,6.78,22.54,19.11,61.38,45.85,129.53,0,0,10.65,29.05,31.37,75.86,1.17,2.64,5.79,11.98,10.75,15.13,3.37,2.13,17.57,4.33,19.94,4.68l3.4.62,4.53.38c36.58,3.3,58.45.17,58.98-7.28.26-3.6-.41-9.37-.41-9.37-.74-5.9-3.44-14.85-4.28-16.72-6.7-14.99-15.88-40.45-27.78-70.25-1.71-4.27-7.2-15.55-10.63-24.68-2.19-5.83-7.38-17.29-9.65-23.1-7.1-18.18-20.94-45.09-26.88-57.89-3.48-7.5-10.49-21.6-6.98-26.1,4.14-5.33,18.95,7.67,24.98,12.07,10.57,7.71,26.61,24.32,39.72,38.11,2.17,2.28,18.27,19.98,23.32,25.43Z"/>
      <path class="cls-4" d="M196.13,216.35c5.59,6.29,14.83,16.02,23.98,25.16,19.45,19.45,32.73,30.15,44.1,38.97,1.42,1.1,8.36,5.61,12.83,6.58,0,0,5.86.28,8.59-.06,5.65-.7,8.01-29.55,5.47-77.79l-.29-5.97-.47-4.48c-.27-3.12-1.94-8.94-3.56-13.38-2.39-6.54-7.25-14.83-8.98-16.67-29.77-31.78-56.32-53.94-56.32-53.94-10.08-8.68-77.35-61-98.6-74.49C80.68,13.53,50.84,3.38,36.93,1.97c-12.03-1.22-19.51,1.17-27.14,7.35-.73.59-1.95,2.2-2.39,3.16C2.71,22.54.97,32.19,1.9,48.05c1.08,18.35,4.32,44.7,23.61,108.85,6.78,22.54,19.11,61.38,45.85,129.53,0,0,10.65,29.05,31.37,75.86,1.17,2.64,5.79,11.98,10.75,15.13,3.37,2.13,17.57,4.33,19.94,4.68l3.4.62,4.53.38c36.58,3.3,58.45.17,58.98-7.28.26-3.6-.41-9.37-.41-9.37-.74-5.9-4.25-17.04-5.08-18.91-6.7-14.99-15.08-38.25-26.97-68.05-1.71-4.27-7.2-15.55-10.63-24.68-2.19-5.83-7.38-17.29-9.65-23.1-7.1-18.18-20.78-43.75-26.88-57.89-3.27-7.59-10.49-21.6-6.98-26.1,4.14-5.33,18.84,7.82,24.98,12.07,9.94,6.88,19.98,18.35,33.46,31.84,2.22,2.22,16.77,16.65,23.95,24.73Z"/>
      <path class="cls-1" d="M109.64,139.83c-.34-4.99,3.97-15.37,10.83-16.62.97-.18,3.91.99,7.08,3.47,3.75,2.94,15.1,15.37,16,16.53,10.55,13.49,35.21,39.79,34.32,41.59-.95,1.94-38.75-34.38-54.04-43.75-8.61-5.28-13.89,3.23-14.2-1.22Z"/>
      <path class="cls-2" d="M123.38,195.13c-1.51,1.66-12.81-16.59-16.05-22.09-.92-1.56-2.63-4.53-3.02-8.2-.3-2.77.1-6.53,1.51-6.66,1.99-.18,5.23,6.9,9.93,17.3,5.62,12.45,8.46,18.73,7.63,19.65Z"/>
      <path class="cls-2" d="M238.64,223.06c-9.24-25.72,14.3-35.88,4.72-54.12-8.17-15.54-57.43-71.27-26.13-47.24,8.19,6.29,21.95,18.06,34.6,30.71,5.97,5.97,13.6,14.9,20.41,23.45,4.2,5.27,6.68,14.44,7.16,16.88,1.25,6.34,4.48,33.3,4.5,35.07.26,23.82-.23,51.85-4.03,49.46-31.42-19.79-34.46-35.38-41.22-54.2Z"/>
      <path class="cls-2" d="M98.39,43.6c.58-2.47,11.24,1.65,23.12,7.41,6.6,3.2,18.49,11.14,22.02,13.71,8.31,6.05,7.55,5.74,31.7,24.76,20.46,16.12,20.48,17.14,20.11,18.2-.8,2.32-3.03.67-20.68-10.78-12.74-8.27-19.35-11.33-48.2-31.15-23.97-16.47-28.49-20.35-28.07-22.15Z"/>
      <path class="cls-1" d="M193.39,372.3c-6.62,11.93-41.01,3.63-51.98,3.63-12.45,0-11.58-14.77-14.79-16.47-11.56-6.09-21.02-24.7-36.4-54.99-5.83-11.47-10.3-21.64-12.1-25.81-1.47-3.4-4-9.38-8.71-21.75-3.53-9.27-8.16-21.8-13.26-36.77-2.21-18.9,23.45,38.21,32.66,52,6.6,9.88,23.95,33.58,29.54,37.07,6.95,4.34,21.02,7.84,31.72,8.68,2.86.22,26.69,6.92,31.25,12.43,3.03,3.67,15.94,35.03,12.08,41.99Z"/>
      <path class="cls-3" d="M153.45,337.68c4.72,6.02,8.24,23.69-3.31,36.16-4.54,4.9-21.22-.12-24.86-1.57-3.39-1.36-8.33-2.2-20.15-24.57-14.8-28.02-21.07-51.62-25.58-62.37-11.29-26.94,1.22-14.04,1.54-13.58,8.41,12.19,14.64,37.05,44.07,54.65,14.46,8.65,23.75,5.48,28.29,11.28Z"/>
    </g>
  </g>
</svg>