<?xml version="1.0" encoding="UTF-8"?>
<svg id="Layer_2" data-name="Layer 2" xmlns="http://www.w3.org/2000/svg" viewBox="0 0 293.77 386.07">
  <defs>
    <style>
      .cls-1 {
        fill: #e7b197;
      }

      .cls-2 {
        fill: #d5feb4;
      }

      .cls-3 {
        fill: #cc8be1;
      }

      .cls-4 {
        fill: none;
        stroke: #462c2d;
        stroke-linecap: round;
        stroke-miterlimit: 10;
        stroke-width: 3.32px;
      }

      .cls-5 {
        fill: #ffd156;
      }
    </style>
  </defs>
  <g id="Layer_1-2" data-name="Layer 1">
    <g id="up_right" data-name="up right">
      <path class="cls-5" d="M92.02,223.32c-5.72,6.17-12.5,12.63-15.44,15.27-24.46,21.98-41.54,37.79-54.9,46.61-1.5.99-3.98,1-8.46,1.97,0,0-2.35.18-5.08-.16-5.65-.7-8.01-29.55-5.47-77.79l.29-5.97.47-4.48c.27-3.12,1.94-8.94,3.56-13.38,2.39-6.54,7.19-14.88,8.98-16.67,34.08-34.02,56.32-53.94,56.32-53.94,52.34-40.95,87.93-68.53,104.39-78.1C222.35,10.13,242.93,3.38,256.85,1.97c12.03-1.22,19.51,1.17,27.14,7.35.73.59,1.95,2.2,2.39,3.16,4.68,10.06,6.43,19.71,5.49,35.57-1.08,18.35-4.32,44.7-23.61,108.85-6.78,22.54-19.11,61.38-45.85,129.53,0,0-10.65,29.05-31.37,75.86-1.17,2.64-5.79,11.98-10.75,15.13-3.37,2.13-17.57,4.33-19.94,4.68l-3.4.62-4.53.38c-36.58,3.3-58.45.17-58.98-7.28-.26-3.6.41-9.37.41-9.37.74-5.9,3.44-14.85,4.28-16.72,6.7-14.99,15.88-40.45,27.78-70.25,1.71-4.27,7.2-15.55,10.63-24.68,2.19-5.83,7.38-17.29,9.65-23.1,7.1-18.18,20.94-45.09,26.88-57.89,3.48-7.5,10.49-21.6,6.98-26.1-4.14-5.33-18.95,7.67-24.98,12.07-10.57,7.71-26.61,24.32-39.72,38.11-2.17,2.28-18.27,19.98-23.32,25.43Z"/>
      <path class="cls-4" d="M97.65,216.35c-5.59,6.29-14.83,16.02-23.98,25.16-19.45,19.45-32.73,30.15-44.1,38.97-1.42,1.1-8.36,5.61-12.83,6.58,0,0-5.86.28-8.59-.06-5.65-.7-8.01-29.55-5.47-77.79l.29-5.97.47-4.48c.27-3.12,1.94-8.94,3.56-13.38,2.39-6.54,7.25-14.83,8.98-16.67,29.77-31.78,56.32-53.94,56.32-53.94,10.08-8.68,77.35-61,98.6-74.49C213.09,13.53,242.93,3.38,256.85,1.97c12.03-1.22,19.51,1.17,27.14,7.35.73.59,1.95,2.2,2.39,3.16,4.68,10.06,6.43,19.71,5.49,35.57-1.08,18.35-4.32,44.7-23.61,108.85-6.78,22.54-19.11,61.38-45.85,129.53,0,0-10.65,29.05-31.37,75.86-1.17,2.64-5.79,11.98-10.75,15.13-3.37,2.13-17.57,4.33-19.94,4.68l-3.4.62-4.53.38c-36.58,3.3-58.45.17-58.98-7.28-.26-3.6.41-9.37.41-9.37.74-5.9,4.25-17.04,5.08-18.91,6.7-14.99,15.08-38.25,26.97-68.05,1.71-4.27,7.2-15.55,10.63-24.68,2.19-5.83,7.38-17.29,9.65-23.1,7.1-18.18,20.78-43.75,26.88-57.89,3.27-7.59,10.49-21.6,6.98-26.1-4.14-5.33-18.84,7.82-24.98,12.07-9.94,6.88-19.98,18.35-33.46,31.84-2.22,2.22-16.77,16.65-23.95,24.73Z"/>
      <path class="cls-1" d="M133.63,377.83c-4.86-.28-24.2,4.33-30.85-4.61-.94-1.26-1.43-6.2-.26-12.32,1.39-7.23,10.51-31.44,11.46-33.48,11.17-23.75,29.97-75.89,33.12-75.8,3.38.1-19.93,77.41-21.96,105.23-1.14,15.67,15.46,21.38,8.49,20.98Z"/>
      <path class="cls-3" d="M102.77,373.23c3.35,5.07,10.71,5.61,13.46,5.57,4.77-.06-5.63-4.27-5.88-15.4-.18-7.96.79-14.84,1.51-19.98,1.56-11.07,5.24-20.31,4.68-20.35-.51-.04-4.35,7.1-8.4,17.05-5.15,12.67-5.3,14.6-7.24,21.84-1.61,5.99.94,9.88,1.87,11.27Z"/>
      <path class="cls-2" d="M250.5,135.35c1.29,1.84,14.83-14.82,18.74-19.85,1.11-1.43,3.19-4.16,4.04-7.74.65-2.71.73-6.49-.65-6.8-1.95-.44-6.07,6.18-12.06,15.89-7.17,11.63-10.79,17.49-10.07,18.51Z"/>
      <path class="cls-2" d="M276.3,83.78c4.38-9.35,8.15-21.35,8.15-39.58,0-8.45-1.14-16.31-3.59-21.01-3.12-5.97-8.67-7.79-11.03-8.57-6.14-2.01-17.41-1.91-19.1-1.42-23.64,6.83-25.27,8.03-25.28,12.53,0,3.96,3.83,1.21,15.49,14.13,12.83,14.22,11.75,33.85,11.98,35.87,3.06,27.16-3.08,47.79-1.05,44.78,9.53-14.2,18.84-24.77,24.44-36.73Z"/>
      <path class="cls-2" d="M261.94,141.79c-1.93-1.65-8.08,7.98-14.24,19.67-3.42,6.49-8.3,19.93-9.62,24.09-3.11,9.79-2.68,9.09-10.87,38.72-6.94,25.11-6.34,25.94-5.43,26.57,2.02,1.39,2.84-1.26,10.28-20.94,5.37-14.21,8.88-20.59,20.38-53.65,9.55-27.46,10.9-33.27,9.5-34.47Z"/>
      <path class="cls-1" d="M12.65,201.13c-1.54,19.21-3.8,27.31-2.77,38.26,1.06,17.63,6.85,21.68,9.43,22.87,9.26,4.3,23.34-6.82,46.28-24.92,8.68-6.85,16-13.59,18.99-16.38,2.43-2.27,6.69-6.32,15.19-15.19,6.37-6.64,14.91-15.76,24.87-27.05,10.26-18.22-31.14,19.05-42.79,25.21-8.35,4.42-29.2,13.6-33.93,12.11-5.89-1.86-9.25-18.49-15.51-27.61-1.68-2.44-6.75-6.02-11.88-4.38-3.42,1.1-7.55,13.23-7.85,17.07Z"/>
      <path class="cls-3" d="M15.02,213.71c-5.47,2.04-5.37,17.81-5,42.03.14,9.52,1.2,19.67,3.89,21.52,2.51,1.73,8.06-.03,25.25-12.97,21.53-16.21,33.82-30.2,41.44-37.51,19.09-18.34,6.05-16.22,5.66-16.03-10.45,5.21-25.76,26.06-50.32,17.37-12.06-4.27-15.64-16.38-20.91-14.42Z"/>
    </g>
  </g>
</svg>