<?xml version="1.0" encoding="UTF-8"?>
<svg id="Layer_2" data-name="Layer 2" xmlns="http://www.w3.org/2000/svg" viewBox="0 0 293.86 386.15">
  <defs>
    <style>
      .cls-1 {
        fill: #e7b197;
      }

      .cls-2 {
        fill: #d5feb4;
      }

      .cls-3 {
        fill: #cc8be1;
      }

      .cls-4 {
        fill: none;
        stroke: #462c2d;
        stroke-linecap: round;
        stroke-miterlimit: 10;
        stroke-width: 3.4px;
      }

      .cls-5 {
        fill: #ffd156;
      }
    </style>
  </defs>
  <g id="Layer_1-2" data-name="Layer 1">
    <g id="up">
      <path class="cls-5" d="M105.59,272.6c-2.66,8.79-4.7,19.24-5.98,23.36-8.92,28.71-17.82,60.37-21.71,75.41-.49,1.88-2.69,3.95-5.79,8.29,0,0-1.85,2.07-4.33,4.13-5.14,4.26-25.32-11.98-53.68-44.53l-3.53-4.01-2.44-3.22c-1.74-2.19-4.03-7.26-5.49-11.41-2.14-6.12-.09-15.86.6-18.5,12.32-46.8,21.81-74,21.81-74,20.78-65.27,34.7-100.39,43.65-119.92,23.47-51.23,38.41-75.87,49.1-88.35,9.24-10.79,16.98-15.51,27.23-17.96.98-.23,3.01-.23,3.99,0,10.25,2.45,17.79,7.08,27.03,17.87,10.69,12.48,24.63,31.81,49.1,88.35,8.6,19.87,22.86,54.65,43.65,119.92,0,0,9.48,27.2,21.81,74,.7,2.64,2.75,12.38.6,18.5-1.45,4.15-3.74,9.21-5.49,11.41l-2.44,3.22-3.53,4.01c-28.35,32.55-48.54,48.79-53.68,44.53-2.48-2.06-5.57-6.25-5.57-6.25-3.11-4.34-6.51-12.23-7-14.11-3.89-15.04-12.33-38.75-21.25-67.46-1.28-4.12-3.84-15.81-6.74-24.43-1.86-5.51-4.78-17.05-6.56-22.61-5.57-17.38-13.09-39.63-19.1-51.21-3.47-6.68-8.16-21.92-13.91-21.84-6.81.09-12.79,17.88-15.99,25.61-5.11,12.32-15.21,40.35-20.68,57.8-1.03,3.28-2.48,9.49-3.67,13.41Z"/>
      <path class="cls-4" d="M105.59,272.6c-2.66,8.79-4.7,19.24-5.98,23.36-8.92,28.71-14.23,50.83-18.12,65.87-.49,1.88-3.42,10.5-6.52,14.84,0,0-4.7,5.06-7.19,7.11-5.14,4.26-25.32-11.98-53.68-44.53l-3.53-4.01-2.44-3.22c-1.74-2.19-4.03-7.26-5.49-11.41-2.14-6.12-.09-15.86.6-18.5,12.32-46.8,21.81-74,21.81-74,20.78-65.27,34.7-100.39,43.65-119.92,23.47-51.23,38.41-75.87,49.1-88.35,9.24-10.79,16.98-15.51,27.23-17.96.98-.23,3.01-.23,3.99,0,10.25,2.45,17.79,7.08,27.03,17.87,10.69,12.48,24.63,31.81,49.1,88.35,8.6,19.87,22.86,54.65,43.65,119.92,0,0,9.48,27.2,21.81,74,.7,2.64,2.75,12.38.6,18.5-1.45,4.15-3.74,9.21-5.49,11.41l-2.44,3.22-3.53,4.01c-28.35,32.55-48.54,48.79-53.68,44.53-2.48-2.06-5.57-6.25-5.57-6.25-3.11-4.34-7.23-14.29-7.72-16.17-3.89-15.04-11.61-36.7-20.53-65.4-1.28-4.12-3.84-15.81-6.74-24.43-1.86-5.51-4.78-17.05-6.56-22.61-5.57-17.38-13.09-39.63-19.1-51.21-3.47-6.68-8.16-21.92-13.91-21.84-6.81.09-12.79,17.88-15.99,25.61-5.11,12.32-15.21,40.35-20.68,57.8-1.03,3.28-2.48,9.49-3.67,13.41Z"/>
      <path class="cls-1" d="M33.41,234.75c2.35-9.66,7.2-29.01,11.71-46.62,7.74-23.78,12.18-33.16,13.21-35.97,3.3-9.01.14,23.62-.62,30.86-5.39,51.32-7.8,76.3-2.78,96.41,1.24,4.96,3.82,16.51,7.05,23.42,1.17,2.49,10.2,4.24,16.03-1.59,8.28-8.28,6.32-4.48,13.3-13.26,8.16-10.28-12.55,66.16-22.73,83.82-6.09,10.57-24.62-13.15-30.98-19.34-14.74-14.34-10.76-54.59-10.35-66.92.77-23.08-.09-25.02,6.17-50.82Z"/>
      <path class="cls-3" d="M42.45,359.18c-15.98-14.57-29.5-34.62-31.33-40.53-.82-2.63,2.26-15.89,3.32-21.67,2.91-15.93,8.22-32.28,12.02-46.96,9.53-36.8,16.37-53.47,17.03-55.04,2.14-5.15-12.54,86.13-5.61,122.44,2.39,12.55,9.99,34,9.99,42.85,0,3.62,3.27,6.82-5.41-1.09Z"/>
      <path class="cls-1" d="M253.85,357.88c-3.36,2.95-13.82,17.4-22.8,17.4-1.27,0-4.12-2.02-6.47-5.66-2.78-4.3-9.1-21.53-9.51-23.1-4.74-18.31-18.91-54.89-16.78-56.84,2.29-2.1,26.35,49.23,39.21,63.67,7.25,8.13,21.17.29,16.34,4.53Z"/>
      <path class="cls-3" d="M231.05,375.28c4.81.27,9.96-4.15,11.77-5.91,3.13-3.05-5.91,1.55-11.77-3.55-4.19-3.65-7.06-7.52-9.2-10.4-4.62-6.22-6.91-12.92-7.3-12.59-.36.3.74,6.12,3.15,13.39,3.06,9.26,3.95,10.26,6.36,14.92,1.99,3.86,5.67,4.07,7,4.14Z"/>
      <path class="cls-2" d="M196.76,109.3c2.23.09,2.98-21.7,3.05-28.14.02-1.83.02-5.28-1.53-8.25-1.17-2.25-3.49-4.71-4.84-3.75-1.9,1.35-1.15,8.95,0,20.07,1.38,13.31,2.07,20.02,3.31,20.07Z"/>
      <path class="cls-2" d="M185.66,55.26c-2.26-9.55-6.71-20.26-18.21-31.76-5.33-5.33-11.25-9.34-16.25-10.27-6.36-1.17-12.13,2.3-14.59,3.78-6.38,3.84-15.69,13.29-16.8,15.01-15.36,24-15.96,26.12-13.13,28.96,2.49,2.5,3.95-2.43,21.82-3.99,19.66-1.71,31.16,11.57,32.62,12.66,19.7,14.59,27.62,32.72,27.4,29.13-1.04-16.89.03-31.33-2.86-43.53Z"/>
      <path class="cls-2" d="M210.88,103.76c-3.97.84-2.4,16.81,1.1,34.63,1.94,9.9,8.72,27.76,11.04,33.06,5.48,12.49,5.34,11.35,23.44,47.65,15.34,30.76,16.87,30.8,18.61,30.27,3.84-1.17,2.32-4.52-7.22-31.03-6.89-19.14-8.62-29.05-25.87-72.38-14.34-36-18.2-42.81-21.09-42.2Z"/>
    </g>
  </g>
</svg>