<?xml version="1.0" encoding="UTF-8"?>
<svg id="Layer_2" data-name="Layer 2" xmlns="http://www.w3.org/2000/svg" viewBox="0 0 130.51 369.18">
  <defs>
    <style>
      .cls-1 {
        fill: #e7b197;
      }

      .cls-2 {
        fill: #d5feb4;
      }

      .cls-3 {
        fill: #cc8be1;
      }

      .cls-4 {
        fill: #462c2d;
      }

      .cls-5 {
        fill: #ffd156;
      }
    </style>
  </defs>
  <g id="numbers">
    <g>
      <g>
        <path class="cls-5" d="M66.49,365.86c-11,0-19.95-8.95-19.95-19.95v-190.37c0-12.83-10.44-23.27-23.27-23.27-11,0-19.95-8.95-19.95-19.95v-30.8c0-4.4,1.49-8.74,4.18-12.22L52.67,11.05c3.75-4.84,9.64-7.73,15.77-7.73h38.8c11,0,19.95,8.95,19.95,19.95v322.64c0,11-8.95,19.95-19.95,19.95h-40.75Z"/>
        <path class="cls-4" d="M107.24,4.98c10.08,0,18.29,8.2,18.29,18.29v322.64c0,10.08-8.2,18.29-18.29,18.29h-40.75c-10.08,0-18.29-8.2-18.29-18.29v-190.37c0-13.75-11.18-24.93-24.93-24.93-10.08,0-18.29-8.2-18.29-18.29v-30.8c0-4.04,1.36-8.02,3.84-11.21L53.98,12.06c3.44-4.44,8.84-7.08,14.45-7.08h38.81M107.24,1.66h-38.81c-6.68,0-12.98,3.09-17.08,8.37L6.19,68.28c-2.94,3.79-4.53,8.45-4.53,13.24v30.8c0,11.93,9.67,21.61,21.61,21.61h0c11.93,0,21.61,9.67,21.61,21.61v190.37c0,11.93,9.67,21.61,21.61,21.61h40.75c11.93,0,21.61-9.68,21.61-21.61V23.27c0-11.93-9.67-21.61-21.61-21.61h0Z"/>
      </g>
      <path class="cls-2" d="M115.59,14.22c-9.78-8.59-30.05-6.13-39.84-2.34-3.05,1.18,9.84,8.85,14.89,10.39,8.72,2.66,15.45,10.57,15.45,19.18s.59,10.99,12.71,12.28c2.53.27,1.07-8.79,1.07-24.89,0-1.95-.26-11.08-4.29-14.62Z"/>
      <path class="cls-2" d="M108.39,57.37c2.83-.94,10.71-.38,11.91,3.28.2.61.06.77,0,2.77-.17,5.44.79,6.62,0,7.43-1.69,1.75-6.47-1.62-11.91-5.88-1.78-1.39-2.49-6.78,0-7.61Z"/>
      <path class="cls-1" d="M15.92,79.38c-5.44,8.48-4.48,21.07-2.23,35.89.73,4.79,7.37,5.58,12.71,7.46,15.46,5.44,20.51,2.8,25.41,6.91,8.91,7.46,3.3,25.97,9.1,25.97,17.29,0,17.78-21.17,11.29-35.08-3.01-6.44-7.54-3.71-21.85-15.64-5.69-4.74-10.64-18.38-20.91-25.74-7.41-5.31-12.71-1.04-13.53.23Z"/>
      <path class="cls-1" d="M57.79,236.65v77.37c0,14.5-.31,31.81,7.46,39.66,4.09,4.14,4.31,1.57,14.89,3.48,12.89,2.33,27.93.98,31.17-2.76,4.24-4.88-10.03-11.76-22.28-38.95-5-11.11-10.33-63.23-18.18-85.46-6.27-17.74-13.06-8.95-13.06,6.66Z"/>
      <path class="cls-3" d="M58.61,288.42c-3.03,3.03-2.98,34.43-1.36,54.19.16,1.89.69,5.07,3.41,8.73,1.45,1.95,3.81,3.63,11.86,5.37,9.84,2.12,18,3.89,19.49,1.13,1.84-3.4-8.79-9.35-18.36-22.88-13.45-19.01-13.28-48.3-15.04-46.54Z"/>
    </g>
  </g>
</svg>