<?xml version="1.0" encoding="UTF-8"?>
<svg id="Layer_2" data-name="Layer 2" xmlns="http://www.w3.org/2000/svg" viewBox="0 0 247.82 375.52">
  <defs>
    <style>
      .cls-1 {
        fill: #e7b197;
      }

      .cls-2 {
        fill: #d5feb4;
      }

      .cls-3 {
        fill: #cc8be1;
      }

      .cls-4 {
        fill: #ffd156;
        stroke: #462c2d;
        stroke-width: 3.32px;
      }
    </style>
  </defs>
  <g id="numbers">
    <g>
      <path class="cls-4" d="M92.1,274.53c6.88-9.38,3.29-22.74-7.38-27.39C32.63,224.44,1.66,182.11,1.66,130.42,1.66,55.13,49.82,1.66,122.68,1.66c79.03,0,123.49,56.99,123.49,132.27s-38.23,142.45-117.37,233.68c-6.45,7.43-17.66,8.35-25.25,2.1l-38.64-31.8c-7.81-6.43-8.88-18.01-2.35-25.74,9.74-11.53,19.77-24.32,29.55-37.65ZM131.93,178.23c9.19,2.49,18.7-2.74,21.79-11.74,3.85-11.22,6-21.53,6-30.45,0-24.63-12.97-40.1-35.81-40.1-20.99,0-35.81,14.78-35.81,37.29s19.05,38.29,43.83,45Z"/>
      <path class="cls-2" d="M146.82,10.86c-20.57-4.1-37.23.21-46.61,2.74-8.46,2.29-30.87,9.4-30.16,14.62,1.02,7.49,47.18-6.55,89.66,15.54,40.79,21.21,54.31,63.31,61.12,59.86,5.21-2.64.04-28.61-12.34-48.89-2.91-4.77-22.72-36.1-61.69-43.87Z"/>
      <path class="cls-2" d="M86.11,161.46c-3.71,4.1-8.65,21.25,16.18,28.06,6.7,1.84,22.17-3.05,18.53-4.96-20.35-10.66-29.12-29.27-34.71-23.1Z"/>
      <path class="cls-1" d="M9.77,133.37c1.96,34.43,20.52,66.26,28.43,73.65,29.6,27.66,68.06,43.97,64,36.64-16.61-29.96-55.36-26.9-49.64-68.39,5.58-40.5-6.51-67.07-12.49-68.53-4.88-1.19-31.94-2.29-30.3,26.63Z"/>
      <path class="cls-1" d="M102.5,274.59c-6.26-1.93-11.4,20.36-32.46,41.03-1.81,1.78-5.34,5.12-5.08,9.35.39,6.34,8.99,9.24,18.77,15.58,19.47,12.63,24.11,26.24,27.98,24.41,3.99-1.89-1.72-16.06-4.67-42.59-3.5-31.36.61-46.2-4.53-47.79Z"/>
      <path class="cls-3" d="M84.87,297.61c-4.59-.34-6.65,9.29-18.22,23.95-.6.77-1.79,2.24-1.7,4.17.18,4.29,6.5,6.59,12.38,10.15,13.07,7.91,19.99,19.09,22.93,18.07,6.98-2.42-4.99-55.57-15.38-56.34Z"/>
      <path class="cls-2" d="M226.87,110.51c-1.96.05-3.22,9.11-4.01,14.94-3.48,25.78.85,37.72,0,56.38-1.16,25.51-10.95,40.59-9.96,40.96,1.49.55,22.56-34.06,21.2-76.61-.52-16.15-4.33-35.73-7.23-35.66Z"/>
    </g>
  </g>
</svg>