<?xml version="1.0" encoding="UTF-8"?>
<svg id="Layer_2" data-name="Layer 2" xmlns="http://www.w3.org/2000/svg" viewBox="0 0 253.38 379.03">
  <defs>
    <style>
      .cls-1 {
        fill: #e7b197;
      }

      .cls-2 {
        fill: #d5feb4;
      }

      .cls-3 {
        fill: #cc8be1;
      }

      .cls-4 {
        fill: #ffd156;
        stroke: #462c2d;
        stroke-width: 3.32px;
      }
    </style>
  </defs>
  <g id="numbers">
    <g>
      <path class="cls-4" d="M1.66,261.28c0-33.25,12.31-62.48,30.25-82.22,4.95-5.44,5.16-13.76.29-19.28-12.91-14.61-21.28-36.44-21.28-59.62C10.92,42.47,60.32,1.66,125.76,1.66s116.08,40.81,116.08,98.5c0,23.01-7.85,44.67-20.12,59.28-4.77,5.68-4.35,14,.75,19.38,17.57,18.5,29.25,46.54,29.25,82.46,0,68.95-48.78,116.09-125.96,116.09S1.66,330.23,1.66,261.28ZM165.9,257.06c0-18.37-16.1-31.23-35.29-38.59-2.89-1.11-6.08-1.21-9.06-.37-19.3,5.45-34.06,20.1-34.06,38.95,0,20.4,14.82,35.18,38.9,35.18s39.52-13.37,39.52-35.18ZM156.02,105.79c0-15.48-12.97-28.14-29.02-28.14-17.9,0-30.25,12.66-30.25,27.44,0,13.77,9.77,24.19,23.66,31.28,3.75,1.91,8.14,2.05,12.05.48,12.12-4.86,23.57-16.21,23.57-31.06Z"/>
      <path class="cls-2" d="M178.28,20.46c-15.92-7.44-29.53-9.1-41.22-10.53-9.1-1.11-23-2.82-23.82,0-1.14,3.93,25.15,9.88,52.65,28.85,36.35,25.08,47.82,54.31,54.98,50.84,5.82-2.83,3.46-24.72-5.95-40.62-9.35-15.78-23.78-22.53-36.64-28.53Z"/>
      <path class="cls-2" d="M204.59,179.06c-6.25,2.42-3.68,24.64,0,38.49,6.66,25.03,24.08,49.54,31.44,46.97,6.5-2.27,5.13-25.71,0-42.73-7.07-23.46-24.49-45.42-31.44-42.73Z"/>
      <path class="cls-1" d="M87.48,107.79c5.9,1.01,3.8,17.63,16.91,27.46,8.04,6.02,8.41,9.63,6.83,9.81-5.58.62-11.66.96-23.74-3.14-3.41-1.15-8.27-4.52-11.32-13.02-3.67-10.22,6.81-21.89,11.32-21.11Z"/>
      <path class="cls-1" d="M12.05,243.23c-.91,4.24-1.44,28.29-.96,30.66,5.05,25.02,4.21,29.49,18.96,51.87,10.98,16.67,25.75,24.77,36,30.4,4.15,2.28,18.7,9.94,40.28,13.55,28.66,4.79,62.15,1.16,62.91-5.55.89-7.87-45.08-3.38-75.55-35.27-31.56-33.02-26.64-115.15-47.06-125.3-10.69-5.31-31.67,26.07-34.57,39.64Z"/>
      <path class="cls-3" d="M19.47,282.02c-4.34,2.07-.58,24.95,11.08,42.88,9.53,14.65,21.9,22.24,32.76,28.91,14.09,8.65,34.08,17.6,36.13,14.45,2.08-3.19-16.76-15.11-42.4-43.12-25.26-27.59-33.54-45.04-37.58-43.12Z"/>
    </g>
  </g>
</svg>