<?xml version="1.0" encoding="UTF-8"?>
<svg id="Layer_2" data-name="Layer 2" xmlns="http://www.w3.org/2000/svg" viewBox="0 0 226.63 379.03">
  <defs>
    <style>
      .cls-1 {
        fill: #e7b197;
      }

      .cls-2 {
        fill: #d5feb4;
      }

      .cls-3 {
        fill: #cc8be1;
      }

      .cls-4 {
        fill: #ffd156;
        stroke: #462c2d;
        stroke-width: 3.32px;
      }
    </style>
  </defs>
  <g id="numbers">
    <g>
      <path class="cls-4" d="M7.02,293.27l35.12-33.84c7.31-7.04,18.99-6.36,25.59,1.35,12.2,14.26,27.61,22.3,43.01,22.3,17.29,0,29.02-11.26,29.02-28.14,0-17.99-15.7-32.4-40.21-38.44-7.9-1.95-13.51-8.93-13.51-17.07v-32.82c0-7.69,5.01-14.48,12.35-16.75,21.19-6.56,32.72-18.02,32.72-33.53,0-12.66-8.64-21.81-22.84-21.81-10.63,0-23.48,4.7-35.82,12.56-8.22,5.23-19.12,2.89-24.33-5.35l-25.32-39.98c-4.65-7.35-3.25-17.03,3.36-22.67C54.64,14.78,89.28,1.66,122.48,1.66c55.57,0,93.85,37.29,93.85,90.06,0,31.03-9.64,54.32-25.65,71.75-6.91,7.51-6.06,19.31,1.96,25.63,20.57,16.21,32.34,43.14,32.34,75.7,0,68.95-43.22,112.57-109.9,112.57-44.92,0-84.74-21.53-110.62-61.95-4.52-7.06-3.46-16.33,2.58-22.14Z"/>
      <path class="cls-2" d="M89.22,19.69c-.17,2.34,2.29,6.66,41.93,20.51,36.03,12.59,42.67,12.06,50.59,20.96,13.81,15.54,11.22,37.01,15.95,36.92,3.28-.07,6.76-10.43,6.92-20.12.44-26.5-24.02-45.62-29.7-50.06-1.5-1.17-32.47-24.65-68.34-16.91-3.89.84-16.98,3.66-17.34,8.71Z"/>
      <path class="cls-1" d="M43,72.68c0,6.17,5.39,23.71,17.63,25.4,1.38.19,2.53.06,4.84-.2,10.92-1.22,16.42-5.34,23.74-7.89,12.64-4.4,22.29-1.18,22.42-2.43.18-1.67-17.62-2.89-43.73-9.91-17.23-4.63-24.9-9.6-24.9-4.96Z"/>
      <path class="cls-1" d="M96.99,164.92c-4.43.27-3.46,30.01,0,38.22.83,1.96,1.96,3.09,2.23,3.34,3.23,3.11,7.96,2.95,9.28,2.97,11.84.18,22.75,18.79,26.33,16.7,3.24-1.89.83-20.9-11.49-32.28-6.75-6.23-12.41-6.43-18.77-15.01-5.94-8.02-5.59-14.05-7.58-13.93Z"/>
      <path class="cls-1" d="M51.77,265.34c-7.15-2.54-18.4,11.14-29.99,25.24-7.8,9.48-8.97,13.47-9.14,16.82-.13,2.54.07,9.27,13.53,23.41,15.56,16.34,32.03,24.92,43.16,29.62,7.64,3.23,24.29,10.26,26.7,6.58,2.98-4.55-21.72-16.43-33.65-43.89-12.73-29.31-1.42-54.52-10.61-57.79Z"/>
      <path class="cls-3" d="M12.61,304.36c.78-5.57,3.58-7.06,14.02-20.31,3.77-4.78,5.92-6.43,6.78-6.11,2.09.77-4.41,10.76-2.64,24.45,1.32,10.18,5.69,15.2,3.55,25.04-.38,1.76-1.32,5.86-3.55,6.31-1.57.31-2.87-.54-7.49-6.07-7.61-9.12-8.66-10.86-9.66-13.84-.46-1.36-1.63-4.98-1-9.46Z"/>
      <path class="cls-2" d="M183.49,191.98c-3.65,2.22,2.32,18,5.92,25.57.58,1.21,9.21,19.08,14,17.7,3.23-.93,3.96-10.39,2.42-17.7-3.32-15.75-18.52-27.9-22.35-25.57Z"/>
    </g>
  </g>
</svg>