<?xml version="1.0" encoding="UTF-8"?>
<svg id="Layer_2" data-name="Layer 2" xmlns="http://www.w3.org/2000/svg" viewBox="0 0 215.58 374.11">
  <defs>
    <style>
      .cls-1 {
        fill: #e7b197;
      }

      .cls-2 {
        fill: #d5feb4;
      }

      .cls-3 {
        fill: #cc8be1;
      }

      .cls-4 {
        fill: #ffd156;
        stroke: #462c2d;
        stroke-width: 3.32px;
      }
    </style>
  </defs>
  <g id="numbers">
    <g>
      <path class="cls-4" d="M3.87,321.13l27.35-48.92c5.03-9,16.72-11.46,25.13-5.49,10.64,7.56,21.93,11.44,34.08,11.44,22.85,0,37.05-14.07,37.05-35.88s-14.2-36.59-38.28-36.59c-5.16,0-10.32.58-15.64,1.93-5.9,1.5-12.15-.09-16.46-4.39l-31.97-31.88c-3.25-3.24-5.08-7.64-5.08-12.23V18.94c0-9.54,7.74-17.28,17.28-17.28h144.5c9.54,0,17.28,7.74,17.28,17.28v54.1c0,9.54-7.74,17.28-17.28,17.28h-60.53c-9.54,0-17.28,7.74-17.28,17.28h0c0,8.66,6.42,15.93,15,17.12,60.01,8.36,94.91,51.97,94.91,119.69,0,77.39-43.22,128.05-116.08,128.05-35.26,0-65.91-10.01-89.92-29.58-6.46-5.26-8.12-14.46-4.05-21.74Z"/>
      <path class="cls-2" d="M186.84,13.52c-3.31-3.14-5.91-2.67-40.26-3.07-16.14-.19-21.76-.36-22.24,1.53-.73,2.9,11.77,6.04,28.76,18.02,10.05,7.09,19.76,13.94,26.07,26.07,6.08,11.69,5.71,21.95,7.67,21.85,2.6-.13,3.57-18.33,3.83-23.39,1.26-23.73,1.89-35.6-3.83-41.02Z"/>
      <path class="cls-2" d="M102.97,124.73c2.69,3.73,6.98,8.3,13.24,9.97,4.54,1.21,7.09.09,11.33,0,6.81-.14,10.7,2.53,26.68,12.33,20.43,12.52,23.93,14.19,23.67,17.33-.49,5.95-13.87,9.25-15.22,9.57-18.65,4.43-44.28-4.12-54.88-24.6-4.58-8.84-5.27-17.79-4.82-24.6Z"/>
      <path class="cls-1" d="M44.25,63.82c-5-1.42-15.16,7.29-16.74,16.31-.44,2.54,0,4.51,0,5.15-.22,18.53-.2,47.68-.2,75.55,0,4.69,14.39,19.18,23.83,28.63,3.35,3.35,7.39,9.16,15.21,11.27,3.15.85,5.2.37,9.26,0,16.78-1.51,24.27,2.95,25.71.59,2.89-4.72,5.99-39.57-28.27-42.34-45.25-3.66-18.09-92.12-28.82-95.16Z"/>
      <path class="cls-1" d="M96.78,287.31c-4.7-1.1-18.64,1.89-32.37-5.25-9.23-4.8-10.67-9.42-16.05-8.96-6.61.57-10.04,8.05-21.05,26.1-6.1,10.01-12.85,13.72-14.94,23.44-.61,2.84-1.34,6.44,0,10.47,2.1,6.3,7.92,9.67,17.14,13.96,13.69,6.37,20.54,9.55,30.29,11.88,12.49,2.98,29.31,7,50.64,3.75,10.85-1.65,49.38-8.18,59.21-29.81,8.88-19.56-51.94-40.69-72.87-45.56Z"/>
      <path class="cls-3" d="M21.65,334.65c-3.24-6.79-4.33-10.9-3.39-13.98,2.99-9.77,9.07-10.83,18.21-24.99,5.71-8.85,6.86-13.89,8.47-13.55,4.24.87-8.11,34.79,7.62,54.21,10.79,13.32,30.27,14.26,29.65,16.94-.58,2.51-17.3.47-21.18,0-22.31-2.72-34.31-7.98-39.39-18.64Z"/>
    </g>
  </g>
</svg>