<?xml version="1.0" encoding="UTF-8"?>
<svg id="Layer_2" data-name="Layer 2" xmlns="http://www.w3.org/2000/svg" viewBox="0 0 241.12 369.18">
  <defs>
    <style>
      .cls-1 {
        fill: #e7b197;
      }

      .cls-2 {
        fill: #d5feb4;
      }

      .cls-3 {
        fill: #cc8be1;
      }

      .cls-4 {
        fill: #ffd156;
        stroke: #462c2d;
        stroke-width: 3.32px;
      }
    </style>
  </defs>
  <g id="numbers">
    <g>
      <path class="cls-4" d="M132.29,307.72H28.48c-8.95,0-16.52-6.61-17.74-15.47L1.95,228.14c-.93-6.8.36-13.72,3.69-19.73L113.65,13.65c4.1-7.4,11.9-11.99,20.36-11.99h76.57c9.47,0,17.15,7.68,17.15,17.15v205.65c0,3.24,2.63,5.87,5.87,5.87h0c3.24,0,5.87,2.63,5.87,5.87v65.66c0,3.24-2.63,5.87-5.87,5.87h0c-3.24,0-5.87,2.63-5.87,5.87v38.34c0,8.61-6.98,15.6-15.6,15.6h-52.78c-8.61,0-15.6-6.98-15.6-15.6v-32.73c0-6.34-5.14-11.47-11.47-11.47ZM143.76,224.46v-84.34c0-6.13-8.21-8.15-11.06-2.73l-44.32,84.34c-2.05,3.91.78,8.59,5.19,8.59h44.32c3.24,0,5.87-2.63,5.87-5.87Z"/>
      <path class="cls-2" d="M170.36,15.06c-4.76-6.29,28.02-3.2,36.96-.24,2.15.71,4.52,1.85,6.21,4.12,2.08,2.79,2.15,6,2.16,7.45.28,30.83.37,46.26-2.16,46.65-5.22.81-5.59-25.56-28.24-44.72-9.86-8.34-12.85-10.5-14.93-13.25Z"/>
      <path class="cls-2" d="M64.99,236.91c-5.51-8.32,8.87-29.67,11.79-32.6,7.39-7.39,16.17-14.08,17.99-12.2,2.21,2.28-12.12,23.79-14.9,35.17-2.25,9.24,6.25,5.53,4.31,7.74-1.97,2.24-14.59,8.83-19.19,1.89Z"/>
      <path class="cls-1" d="M14.96,245.88c-5.32,2.73,5.84,25.36,6.52,44.53.05,1.52.13,5.57,2.82,7.6,3.07,2.33,19.65,1.39,22.15,1.27,12.71-.58.06.17,27.7-.01,13.63-.09,20.45-.14,20.86-2.08.82-3.92-26.14-6.7-52.08-26.61-17.76-13.63-23.93-26.77-27.97-24.71Z"/>
      <path class="cls-1" d="M154.08,312.93c-.49,15.04.58,26.92,1.72,35.15.72,5.24,1.29,7.71,3.4,9.57,5.72,5.03,14.4-1.89,30.76,0,9.03,1.05,14.38,4.08,14.83,3.11.75-1.62-14.99-8.12-29.41-21.04-10.42-9.34-17.09-19.29-21.28-26.78Z"/>
      <path class="cls-3" d="M17.42,264.11c-2.99,2.41,1.3,19.89,4.01,29.05.41,1.38,1.01,4.58,2.86,5.39,1.45.63,2.48.6,4.75.6,7.02,0,21.83,3.34,23.21-.15,1.43-3.62-13.43-14.74-21.49-20.78-7.35-5.51-12.01-15.19-13.34-14.12Z"/>
      <path class="cls-1" d="M136.75,126.5c2.45-.45,8.92-1.29,13.35,2.56,2.16,1.88,3.68,4.73,4.7,14.27,1.64,15.27-.8,21.47,1.01,22.27,3.74,1.64,26.95-19.15,19.27-37.77-5.01-12.16-22.01-20.52-31.31-14.71-5.09,3.18-6.55,9.76-7.01,13.39Z"/>
      <path class="cls-2" d="M159.83,12.07c-4.05,0-7.74-1.53-8.55.99-.58,1.81.78,4.84,2.05,6.53,2.42,3.21,4.07,3.4,8.56,3.85,6.26.63,6.76-.21,6.54-1.23-.8-3.66-3.34-5.9-4.36-7.44-1.39-2.1-1.47-2.69-4.23-2.69Z"/>
    </g>
  </g>
</svg>