<?xml version="1.0" encoding="UTF-8"?>
<svg id="Layer_2" data-name="Layer 2" xmlns="http://www.w3.org/2000/svg" viewBox="0 0 194.72 369.18">
  <defs>
    <style>
      .cls-1 {
        fill: #e7b197;
      }

      .cls-2 {
        fill: #d5feb4;
      }

      .cls-3 {
        fill: #cc8be1;
      }

      .cls-4 {
        fill: #ffd156;
        stroke: #462c2d;
        stroke-width: 3.32px;
      }
    </style>
  </defs>
  <g id="numbers">
    <g>
      <path class="cls-4" d="M193.06,26.38v65.82c0,2.48-.37,4.94-1.1,7.3l-77.48,250.59c-3.2,10.36-12.78,17.42-23.62,17.42h-45.25c-16.81,0-28.72-16.41-23.5-32.39L90.5,125.52c5.21-15.98-6.7-32.39-23.5-32.39H26.38c-13.65,0-24.72-11.07-24.72-24.72V26.38C1.66,12.73,12.73,1.66,26.38,1.66h141.96c13.65,0,24.72,11.07,24.72,24.72Z"/>
      <path class="cls-2" d="M174.75,13.15c-18.36-1.13-16.73-1.93-41.58-2.32-7.46-.12-25.99-.7-32.76,0-5.89.6-13.68,5.08-13.87,8.37-.37,6.13,51.11-.08,69.48,27.79,8.87,13.46,11.63,37.32,21.15,40.48.69.23,2.59.86,4.23,0,4.05-2.13,4.69-15.39,4.82-19.91.89-31.63,5.42-43.78-4.82-51.69-1.44-1.11-3.02-2.5-6.65-2.72Z"/>
      <path class="cls-1" d="M74.59,84.89c-.18,2.25,13.27,1.25,20.37,10.9,8.16,11.09.8,26.56,3.55,27.48,3.56,1.19,23.87-22.02,14.21-36.48-9.47-14.18-37.88-5.14-38.14-1.9Z"/>
      <path class="cls-1" d="M74.59,209.31c-9.88,7.16-36.4,102.83-43.18,120.79-.39,1.04-3.06,12.26-2.31,16.52.95,5.45,6.61,8.64,7.71,9.26,8.18,4.6,14.47,3.9,28.26,3.43,18.16-.62,21.79,2.62,29.28-1.18,12.25-6.22,12.15-28.97,12.14-32.14-.1-23.33-12.92-31.02-22.56-57.03-12.79-34.49-5.21-62.64-9.33-59.65Z"/>
      <path class="cls-3" d="M46.26,287.31c-4.32-.22-9.42,30.01-15.96,49.32-.66,1.95-3.07,6.64-1.34,11.33.42,1.15,1.88,4.48,8.7,7.93,6.14,3.11,33.46,6.56,37.96,1.13,4.23-5.09-17.74-12.21-25.21-37.4-5.18-17.45-1.45-32.19-4.15-32.33Z"/>
    </g>
  </g>
</svg>