<?xml version="1.0" encoding="UTF-8"?>
<svg id="Layer_2" data-name="Layer 2" xmlns="http://www.w3.org/2000/svg" viewBox="0 0 247.82 375.75">
  <defs>
    <style>
      .cls-1 {
        fill: #e7b197;
      }

      .cls-2 {
        fill: #d5feb4;
      }

      .cls-3 {
        fill: #cc8be1;
      }

      .cls-4 {
        fill: #ffd156;
        stroke: #462c2d;
        stroke-width: 3.32px;
      }
    </style>
  </defs>
  <g id="numbers">
    <g>
      <path class="cls-4" d="M155.29,101.82c-6.65,9.08-3.2,22.04,7.14,26.5,52.5,22.63,83.74,65.09,83.74,117.01,0,75.28-48.16,128.76-121.02,128.76C46.11,374.09,1.66,317.1,1.66,241.81S40.01,99.14,119.41,7.7c6.24-7.19,17.08-8.08,24.43-2.03l39.55,32.55c7.56,6.22,8.6,17.43,2.27,24.9-10.01,11.82-20.33,24.98-30.38,38.7ZM123.91,279.81c20.99,0,35.81-14.78,35.81-37.29s-19.33-38.53-44.37-45.15c-8.9-2.35-18.05,2.66-21.08,11.36-3.97,11.42-6.18,21.92-6.18,30.97,0,24.63,12.97,40.1,35.81,40.1Z"/>
      <path class="cls-2" d="M132.16,9.5c-5.66-3.9-14.96,8.17-14.47,13.88.28,3.24,3.27,4.98,6.22,7.38,12.48,10.14,22.83,30.89,19.76,46.07-1.07,5.28-7.53,28-4.85,31.21,1.94,2.34,15.17-13.97,15.78-15.01,14.77-25.35,37.16-35.14,22.44-49.86-13.73-13.73-26.87-21.26-44.89-33.67Z"/>
      <path class="cls-2" d="M79.75,231.94c5.25.89-2.65,32.28,14.22,45.94,6.26,5.07,12.64,5.03,12.52,7.55-.21,4.5-13.85,5.17-25.17-3.57-9.85-7.6-14.26-16.43-12.61-26.14,2-11.8,7.67-24.34,11.04-23.77Z"/>
      <path class="cls-1" d="M12.79,258.5c-1.79,6.35,9.5,69.93,55.58,93.62,16.49,8.48,33.59,13.68,44.98,14.8,11.68,1.15,31.38-1.48,54.18-9.83,13.86-5.07,34.3-15.86,32.8-20.88-2.32-7.75-24.78,34.35-106.37-1.49-20.96-9.21-40.12-68.64-61.18-87.1-17.97-15.75-18.38,5.11-20,10.87Z"/>
      <path class="cls-1" d="M117.67,187.87c-.29,2.82,15.56,2.16,29.82,15.26,11.11,10.21,12.73,20.96,15.63,20.23,3.81-.96,6.88-21.05-3.4-32.36-13.25-14.6-41.67-6.86-42.05-3.12Z"/>
      <path class="cls-3" d="M18.98,279.81c-5.21,3.93,5.97,28.33,18.57,44.93,5.61,7.4,12.33,16.25,15.82,14.78,5.22-2.2,3.68-27.79-10.66-45.04-7.38-8.88-19.85-17.59-23.72-14.67Z"/>
    </g>
  </g>
</svg>