<?xml version="1.0" encoding="UTF-8"?>
<svg id="Layer_2" data-name="Layer 2" xmlns="http://www.w3.org/2000/svg" viewBox="0 0 271.28 379.03">
  <defs>
    <style>
      .cls-1 {
        fill: #e7b197;
      }

      .cls-2 {
        fill: #ffd156;
        stroke: #462c2d;
        stroke-miterlimit: 10;
        stroke-width: 3.32px;
      }

      .cls-3 {
        fill: #d5feb4;
      }

      .cls-4 {
        fill: #cc8be1;
      }
    </style>
  </defs>
  <g id="numbers">
    <g>
      <path class="cls-2" d="M269.62,186c0,117.5-51.86,191.37-135.22,191.37S1.66,301.38,1.66,191.63,58.46,1.66,138.11,1.66s131.51,77.39,131.51,184.34ZM183.18,188.81c0-55.58-18.52-92.87-45.07-92.87-29.64,0-50.01,40.1-50.01,94.28s18.52,92.87,48.16,92.87,46.92-35.88,46.92-94.28Z"/>
      <path class="cls-3" d="M157.58,16.18c-20.76-3.9-37.6.85-46.85,3.57-16.48,4.85-37.43,15.1-36.14,20.52,1.42,5.98,27.32-4.74,60.74,5.8,30.67,9.68,43.62,33.38,61.51,23.65,5.99-3.26,11.36-8.69,16.51-13.83,8.82-8.82-27.95-34.48-55.77-39.71Z"/>
      <path class="cls-3" d="M205.7,74.59c10.55-4.81,13.1-9.45,17.78-12.05,1.69-.94,4.8,3.77,5.7,6.03,1.02,2.54-9.66,8.37-11.74,9.09-10.12,3.49-15.7,5.09-20.78,0-.58-.58,3.59-.57,9.04-3.06Z"/>
      <path class="cls-1" d="M16.33,214.97c-6.5-2.99-7.59,51.04,23.61,97.67,11.27,16.85,37.69,39.26,61.29,49.85,33.78,15.16,62.06-3.1,75.22-11.59,10.6-6.84,30.96-22.44,29.79-29.74-2.01-12.56-62.47,32.85-113-13.12-6.88-6.26-16.91-19.33-36.98-45.48-35.74-46.57-31.9-43.9-39.93-47.58Z"/>
      <path class="cls-4" d="M39.94,312.64c10.65,19.21,26.38,29.6,37.6,36.84,14.48,9.34,26.96,17.39,45.44,18.83,16.22,1.26,34.91-2.74,35.13-7.22.31-6.36-36.95-6.1-78.63-29.97-10.86-6.22-22.24-12.33-33.52-24.49-6.99-7.54-11.94-15.16-13.28-14.39-1.49.86,2.37,11.59,7.26,20.4Z"/>
      <path class="cls-1" d="M191.43,165.71c-6.02-1.52-4.71-29.99-13.9-50.1-9.44-20.66-24.84-20.93-23.74-22.89,1.34-2.37,33.98,3.56,45.45,28.54,5.95,12.96,6.81,32.39-2.63,41.69-1.32,1.3-3.28,3.23-5.18,2.75Z"/>
      <path class="cls-3" d="M78.28,183.02c-2.03-.34-8.08,13.69-9.01,29.37-1.59,26.76,12.46,45.83,21.03,54.08,1.32,1.27,5.01,4.79,6.14,4.01,1.87-1.3-6.37-12.37-11.48-29.37-3.93-13.08-4.65-25.17-5.34-36.72-.85-14.21.06-21.13-1.34-21.36Z"/>
    </g>
  </g>
</svg>