<?xml version="1.0" encoding="UTF-8"?>
<svg id="Layer_2" data-name="Layer 2" xmlns="http://www.w3.org/2000/svg" viewBox="0 0 209.26 374.11">
  <defs>
    <style>
      .cls-1 {
        fill: #e7b197;
      }

      .cls-2 {
        fill: #d5feb4;
      }

      .cls-3 {
        fill: #cc8be1;
      }

      .cls-4 {
        fill: #ffd156;
        stroke: #462c2d;
        stroke-width: 3.32px;
      }
    </style>
  </defs>
  <g id="numbers">
    <g>
      <path class="cls-4" d="M5.7,325.31c0-59.81,31.49-100.61,77.18-147.75,27.17-28.14,38.28-42.92,38.28-61.92,0-12.66-7.41-20.4-17.29-20.4-11.04,0-22.07,9.31-31.3,21.99-7.03,9.65-20.75,11.4-30.14,4.03l-32.66-25.63c-8.4-6.59-10.58-18.39-5.13-27.57C29.5,26.1,65.89,1.66,112.52,1.66c57.42,0,95.08,41.51,95.08,102.72,0,45.73-11.73,77.39-48.16,118.9-8.03,9.15-15.38,16.94-22.02,23.71-13.18,13.43-3.67,36.1,15.15,36.1h31.34c11.72,0,21.23,9.5,21.23,21.23v46.9c0,11.72-9.5,21.23-21.23,21.23H26.93c-11.72,0-21.23-9.5-21.23-21.23v-25.91Z"/>
      <path class="cls-2" d="M80.04,19.03c.58-5.05,21.75-7.63,38.78-6.29,10.82.85,27.54,2.17,42.98,13.98,9.43,7.21,13.95,10.3,22.36,24.71,6.56,11.23,11.6,24.71,13.26,37.49,1.35,10.4,3.86,21.77-2.08,26.9-6.83,5.9-22.86,2.29-32.84-6.29-23.04-19.81-2.98-56.81-22.91-70.23-11.21-7.54-24.23-.34-50.81-13.28-6.36-3.1-8.95-5.13-8.73-6.99Z"/>
      <path class="cls-1" d="M16.2,77.65c-3.61-17.42,18.56-37.9,25.91-34.79,3.98,1.68,1.09,9.2,4.3,28.94,3.62,22.23,10.38,31.71,6.59,34.67-4.58,3.58-18.53-7.16-23.5-11.46-6.45-5.58-11.83-10.23-13.31-17.36Z"/>
      <path class="cls-1" d="M26.61,362.4c-16.47-1.98-11.88-40.69-1.36-74.81,7.54-24.47,37.81-64.15,40.65-63.24,3.52,1.13-19.69,50.95-8.32,81.23,3.47,9.22,15.71,21.04,37.3,31.77,20.54,10.21,45.72,8.72,46.04,11.99.26,2.73-25.88,12.71-27.28,12.86-38.05,3.99-66.52,2.66-87.03.2Z"/>
      <path class="cls-3" d="M15.77,351.45c-.54-5.41-1.22-6.68,0-20.61,1.03-11.75.68-5.44,5.59-29.93,2.64-13.17,4.54-17.53,5.75-17.6,3.32-.19-.09,23.43,13.89,45.35,10.99,17.24,19.33,25.56,19.33,25.56,5.38,5.38,12.64,10.25,10.39,10.42-17.45,1.3-37.74,2.14-49.67-2.63-2.34-.94-5.03-8.12-5.28-10.57Z"/>
      <path class="cls-2" d="M147.64,288.74c19.34,1.74,26.08,1.92,33.81,1.92,1.78,0,8.8,1.08,11.63,2.49,5.94,2.96,8.75,15.2,3.78,20.6-3.67,3.99-10.26,2.8-17.14,1.56-10.62-1.92-24.22-11.96-33.65-17.15-3.49-1.92-5.59-10.15,1.57-9.41Z"/>
    </g>
  </g>
</svg>